<?xml version="1.0" encoding="utf-8"?>
<!-- Generator: Adobe Illustrator 16.0.3, SVG Export Plug-In . SVG Version: 6.00 Build 0)  -->
<!DOCTYPE svg PUBLIC "-//W3C//DTD SVG 1.1//EN" "http://www.w3.org/Graphics/SVG/1.1/DTD/svg11.dtd">
<svg version="1.1" id="Capa_1" xmlns="http://www.w3.org/2000/svg" xmlns:xlink="http://www.w3.org/1999/xlink" x="0px" y="0px"
	 width="566.93px" height="566.93px" viewBox="0 0 566.93 566.93" enable-background="new 0 0 566.93 566.93" xml:space="preserve">
<path fill-rule="evenodd" clip-rule="evenodd" fill="#29353E" d="M312.371,275.303c17.479,0,31.646,14.174,31.646,31.653
	c0,17.479-14.168,31.643-31.646,31.643s-31.647-14.164-31.647-31.643C280.724,289.477,294.893,275.303,312.371,275.303z"/>
<path fill="none" stroke="#29353E" stroke-width="0.216" stroke-miterlimit="22.9256" d="M312.371,275.303
	c17.479,0,31.646,14.174,31.646,31.653c0,17.479-14.168,31.643-31.646,31.643s-31.647-14.164-31.647-31.643
	C280.724,289.477,294.893,275.303,312.371,275.303z"/>
<path fill-rule="evenodd" clip-rule="evenodd" fill="#5C6F82" d="M203.817,377.688l-2.736,2.068l1.188-4.217
	c11.892-89.916,5.561-178.261,67.421-225.747c55.045-42.26,157.826-16.99,190.391,58.716c-56.685,14.267-77.136,9.969-127.1,39.214
	c-4.755,2.772-9.492,5.052-14.122,7.008c-32.089-1.959-71.815,28.563-48.281,80.865L203.817,377.688z"/>
<path fill-rule="evenodd" clip-rule="evenodd" fill="#EFAD4E" d="M467.623,352.142c-10.707,8.029-8.301,1.303-18.276,7.691
	c-0.798,9.189-0.405,14.504-2.449,22.525l-8.114,50.447c-37.22,8.057-63.084-20.326-83.453-34.291
	c3.277,13.283,9.98,17.246,19.208,26.477c-11.219,25.41-25.896,42.461-7.058,76.822c12.208,22.268,31.178,31.533,48.604,48.084
	c-59.03,1.541-93.365-52.287-135.797-53.727c-10.801-4.576-3.319,0.596-12.34-7.084c-5.522-2.563-6.496,1.125-5.849-3.758
	c12.465-36.748,53.356-51.105,54.806-128.576c24.196-1.727,48.524-19.287,46.855-55.338c19.297-6.578,38.487-11.275,60.127-10.687
	l20.46-0.822C449.12,314.403,454.788,328.372,467.623,352.142z"/>
<path fill="none" stroke="#EFAD4E" stroke-width="0.216" stroke-miterlimit="22.9256" d="M467.623,352.142
	c-10.707,8.029-8.301,1.303-18.276,7.691c-0.798,9.189-0.405,14.504-2.449,22.525l-8.114,50.447
	c-37.22,8.057-63.084-20.326-83.453-34.291c3.277,13.283,9.98,17.246,19.208,26.477c-11.219,25.41-25.896,42.461-7.058,76.822
	c12.208,22.268,31.178,31.533,48.604,48.084c-59.03,1.541-93.365-52.287-135.797-53.727c-10.801-4.576-3.319,0.596-12.34-7.084
	c-5.522-2.563-6.496,1.125-5.849-3.758c12.465-36.748,53.356-51.105,54.806-128.576c24.196-1.727,48.524-19.287,46.855-55.338
	c19.297-6.578,38.487-11.275,60.127-10.687l20.46-0.822C449.12,314.403,454.788,328.372,467.623,352.142z"/>
<path fill-rule="evenodd" clip-rule="evenodd" fill="#52A8CC" d="M204.733,241.309c-1.306,31.14-5.242,106.071-13.771,131.817
	c-8.211,24.793-14.195,28.354-31.949,41.201c-27.322,27.809-24.317,41.396-26.988,59.814
	C80.768,404.874,64.5,303.327,89.247,213.971C110.711,213.415,180.108,235.145,204.733,241.309"/>
<path fill-rule="evenodd" clip-rule="evenodd" fill="#899DAC" d="M176.714,519.274c1.239,10.844,2.721,16.709-5.214,2.699
	c-11.201-16.801-36.381-17.602-30.602-49.48c7.96-43.9,54.977-67.814,92.966-98.406c11.466-9.232,31.615-28.713,43.888-29.744
	c0.873,1.518,10.729,7.061,11.192,7.557c1.175,1.232-1.093,3.738-2.151,8.709C276.875,407.208,178.615,441.034,176.714,519.274"/>
<path fill-rule="evenodd" clip-rule="evenodd" fill="#29353E" d="M331.119,258.907c49.872-26.563,81.86-38.824,157.549-37.994
	l-13.102,54.756c-60.647,3.966-38.914-1.387-114.478,14.244C355.298,276.534,344.879,266.785,331.119,258.907z"/>
<path fill="none" stroke="#29353E" stroke-width="0.216" stroke-miterlimit="22.9256" d="M331.119,258.907
	c49.872-26.563,81.86-38.824,157.549-37.994l-13.102,54.756c-60.647,3.966-38.914-1.387-114.478,14.244
	C355.298,276.534,344.879,266.785,331.119,258.907z"/>
<path fill-rule="evenodd" clip-rule="evenodd" fill="#899DAC" d="M304.865,376.913c-1.852,65.502-87.863,88.334-55.567,169.604
	c-18.549-3.787-44.382-14.107-47.823-34.818c-12.97-78.035,87.716-94.213,91.841-157.008c8.209,1.928-2.576-0.578,12.813,2.193
	L304.865,376.913z"/>
<path fill-rule="evenodd" clip-rule="evenodd" fill="#52A8CC" d="M208.783,230.5L94.486,199.511
	c4.2-11.649,12.239-28.111,19.813-41.302l27.853-8.222l77.623,42.877L208.783,230.5z"/>
<path fill-rule="evenodd" clip-rule="evenodd" fill="#52A8CC" d="M184.595,78.323c10.234-7.695,28.34-19.283,45.653-28.156
	l28.991,9.675l22.423,67.967l-31.667,19.211L184.595,78.323z"/>
<path fill-rule="evenodd" clip-rule="evenodd" fill="#52A8CC" d="M331.154,113.866c-3.275,3.758,6.68,1.927-18.006,6.077
	c-8,1.347-13.324,2.364-21.393,3.091c-6.498-24.576-20.823-64.628-27.515-86.955c15.901-5.45,32.562-8.752,49.554-11.076
	l20.287,14.836L331.154,113.866z"/>
<path fill-rule="evenodd" clip-rule="evenodd" fill="#52A8CC" d="M479.619,75.749l-56.088,68.759l-30.24-15.004l32.317-97.073
	c16.25,4.522,33.621,12.654,48.461,19.931L479.619,75.749z"/>
<path fill-rule="evenodd" clip-rule="evenodd" fill="#52A8CC" d="M344.201,116.038l4.333-93.895
	c11.341,0.111,30.161,0.892,47.084,3.463l13.107,18.316l-26.399,80.473C371.227,120.964,356.078,118.003,344.201,116.038"/>
<path fill-rule="evenodd" clip-rule="evenodd" fill="#52A8CC" d="M132.687,130.131c6.198-8.217,17.6-20.5,27.425-30.291
	l26.305-2.234c17.958,16.21,39.944,38.627,55.654,56.807c-2.128,10.808-8.699,17.983-17.021,27.229L132.687,130.131z"/>
<path fill-rule="evenodd" clip-rule="evenodd" fill="#FDFDFD" d="M465.281,65.564c-0.566,2.854,1.679,3.628,4.561,5.146
	c2.694,1.421,4.731,3.169,7.428,4.587l-5.518-22.202L465.281,65.564z"/>
<line fill="none" stroke="#FFFFFF" stroke-width="0.4799" stroke-linecap="round" stroke-linejoin="round" stroke-miterlimit="22.9256" x1="428.746" y1="62.074" x2="462.208" y2="79.734"/>
<line fill="none" stroke="#FFFFFF" stroke-width="0.4799" stroke-linecap="round" stroke-linejoin="round" stroke-miterlimit="22.9256" x1="424.652" y1="72.509" x2="454.427" y2="88.221"/>
<line fill="none" stroke="#FFFFFF" stroke-width="0.4799" stroke-linecap="round" stroke-linejoin="round" stroke-miterlimit="22.9256" x1="419.715" y1="82.72" x2="447.483" y2="97.374"/>
<line fill="none" stroke="#FFFFFF" stroke-width="0.4799" stroke-linecap="round" stroke-linejoin="round" stroke-miterlimit="22.9256" x1="416.444" y1="94.004" x2="440.635" y2="106.77"/>
<line fill="none" stroke="#FFFFFF" stroke-width="0.4799" stroke-linecap="round" stroke-linejoin="round" stroke-miterlimit="22.9256" x1="414.253" y1="105.538" x2="431.824" y2="114.812"/>
<path fill-rule="evenodd" clip-rule="evenodd" fill="#FDFDFD" d="M391.483,39.836c0.462,2.869,2.839,2.815,6.068,3.23
	c3.02,0.394,5.537,1.325,8.56,1.708l-12.913-18.878L391.483,39.836z"/>
<line fill="none" stroke="#FFFFFF" stroke-width="0.4799" stroke-linecap="round" stroke-linejoin="round" stroke-miterlimit="22.9256" x1="355.402" y1="49.533" x2="392.927" y2="54.414"/>
<line fill="none" stroke="#FFFFFF" stroke-width="0.4799" stroke-linecap="round" stroke-linejoin="round" stroke-miterlimit="22.9256" x1="355.205" y1="60.738" x2="388.593" y2="65.085"/>
<line fill="none" stroke="#FFFFFF" stroke-width="0.4799" stroke-linecap="round" stroke-linejoin="round" stroke-miterlimit="22.9256" x1="354.139" y1="72.032" x2="385.278" y2="76.085"/>
<line fill="none" stroke="#FFFFFF" stroke-width="0.4799" stroke-linecap="round" stroke-linejoin="round" stroke-miterlimit="22.9256" x1="355.009" y1="83.748" x2="382.134" y2="87.279"/>
<line fill="none" stroke="#FFFFFF" stroke-width="0.4799" stroke-linecap="round" stroke-linejoin="round" stroke-miterlimit="22.9256" x1="356.978" y1="95.326" x2="376.681" y2="97.89"/>
<path fill-rule="evenodd" clip-rule="evenodd" fill="#FDFDFD" d="M315.475,40.664c1.325,2.585,3.57,1.797,6.772,1.2
	c2.993-0.563,5.675-0.451,8.665-1.018l-18.107-13.972L315.475,40.664z"/>
<line fill="none" stroke="#FFFFFF" stroke-width="0.4799" stroke-linecap="round" stroke-linejoin="round" stroke-miterlimit="22.9256" x1="284.15" y1="61.024" x2="321.348" y2="54.084"/>
<line fill="none" stroke="#FFFFFF" stroke-width="0.4799" stroke-linecap="round" stroke-linejoin="round" stroke-miterlimit="22.9256" x1="287.424" y1="71.742" x2="320.518" y2="65.572"/>
<line fill="none" stroke="#FFFFFF" stroke-width="0.4799" stroke-linecap="round" stroke-linejoin="round" stroke-miterlimit="22.9256" x1="289.893" y1="82.813" x2="320.762" y2="77.056"/>
<line fill="none" stroke="#FFFFFF" stroke-width="0.4799" stroke-linecap="round" stroke-linejoin="round" stroke-miterlimit="22.9256" x1="294.338" y1="93.688" x2="321.226" y2="88.676"/>
<line fill="none" stroke="#FFFFFF" stroke-width="0.4799" stroke-linecap="round" stroke-linejoin="round" stroke-miterlimit="22.9256" x1="299.783" y1="104.091" x2="319.314" y2="100.449"/>
<path fill-rule="evenodd" clip-rule="evenodd" fill="#FDFDFD" d="M241.338,65.969c2.155,1.948,3.975,0.415,6.756-1.286
	c2.597-1.583,5.142-2.438,7.738-4.028l-21.893-6.625L241.338,65.969z"/>
<line fill="none" stroke="#FFFFFF" stroke-width="0.4799" stroke-linecap="round" stroke-linejoin="round" stroke-miterlimit="22.9256" x1="219.291" y1="96.134" x2="251.596" y2="76.429"/>
<line fill="none" stroke="#FFFFFF" stroke-width="0.4799" stroke-linecap="round" stroke-linejoin="round" stroke-miterlimit="22.9256" x1="226.162" y1="104.99" x2="254.901" y2="87.458"/>
<line fill="none" stroke="#FFFFFF" stroke-width="0.4799" stroke-linecap="round" stroke-linejoin="round" stroke-miterlimit="22.9256" x1="232.406" y1="114.457" x2="259.21" y2="98.107"/>
<line fill="none" stroke="#FFFFFF" stroke-width="0.4799" stroke-linecap="round" stroke-linejoin="round" stroke-miterlimit="22.9256" x1="240.424" y1="123.049" x2="263.775" y2="108.803"/>
<line fill="none" stroke="#FFFFFF" stroke-width="0.4799" stroke-linecap="round" stroke-linejoin="round" stroke-miterlimit="22.9256" x1="249.212" y1="130.837" x2="266.175" y2="120.487"/>
<path fill-rule="evenodd" clip-rule="evenodd" fill="#FDFDFD" d="M173.398,110.101c2.746,0.952,3.824-1.172,5.718-3.817
	c1.776-2.475,3.785-4.255,5.558-6.732l-22.742,2.442L173.398,110.101z"/>
<line fill="none" stroke="#FFFFFF" stroke-width="0.4799" stroke-linecap="round" stroke-linejoin="round" stroke-miterlimit="22.9256" x1="170.533" y1="142.385" x2="190.765" y2="114.186"/>
<line fill="none" stroke="#FFFFFF" stroke-width="0.4799" stroke-linecap="round" stroke-linejoin="round" stroke-miterlimit="22.9256" x1="179.503" y1="147.409" x2="197.504" y2="122.318"/>
<line fill="none" stroke="#FFFFFF" stroke-width="0.4799" stroke-linecap="round" stroke-linejoin="round" stroke-miterlimit="22.9256" x1="188.166" y1="153.167" x2="204.952" y2="129.77"/>
<line fill="none" stroke="#FFFFFF" stroke-width="0.4799" stroke-linecap="round" stroke-linejoin="round" stroke-miterlimit="22.9256" x1="198.009" y1="157.553" x2="212.633" y2="137.171"/>
<line fill="none" stroke="#FFFFFF" stroke-width="0.4799" stroke-linecap="round" stroke-linejoin="round" stroke-miterlimit="22.9256" x1="208.218" y1="160.984" x2="218.839" y2="146.177"/>
<path fill-rule="evenodd" clip-rule="evenodd" fill="#FDFDFD" d="M130.327,166.109c2.893,0.265,3.43-2.049,4.645-5.071
	c1.131-2.828,2.661-5.035,3.788-7.864l-21.507,7.789L130.327,166.109z"/>
<line fill="none" stroke="#FFFFFF" stroke-width="0.4799" stroke-linecap="round" stroke-linejoin="round" stroke-miterlimit="22.9256" x1="136.225" y1="198.805" x2="149.151" y2="166.599"/>
<line fill="none" stroke="#FFFFFF" stroke-width="0.4799" stroke-linecap="round" stroke-linejoin="round" stroke-miterlimit="22.9256" x1="146.129" y1="201.544" x2="157.634" y2="172.887"/>
<line fill="none" stroke="#FFFFFF" stroke-width="0.4799" stroke-linecap="round" stroke-linejoin="round" stroke-miterlimit="22.9256" x1="155.917" y1="205.076" x2="166.645" y2="178.351"/>
<line fill="none" stroke="#FFFFFF" stroke-width="0.4799" stroke-linecap="round" stroke-linejoin="round" stroke-miterlimit="22.9256" x1="166.522" y1="206.986" x2="175.865" y2="183.708"/>
<line fill="none" stroke="#FFFFFF" stroke-width="0.4799" stroke-linecap="round" stroke-linejoin="round" stroke-miterlimit="22.9256" x1="177.254" y1="207.889" x2="184.04" y2="190.978"/>
</svg>
