<?xml version="1.0" encoding="utf-8"?>
<!-- Generator: Adobe Illustrator 16.0.3, SVG Export Plug-In . SVG Version: 6.00 Build 0)  -->
<!DOCTYPE svg PUBLIC "-//W3C//DTD SVG 1.1//EN" "http://www.w3.org/Graphics/SVG/1.1/DTD/svg11.dtd">
<svg version="1.1" id="Capa_1" xmlns="http://www.w3.org/2000/svg" xmlns:xlink="http://www.w3.org/1999/xlink" x="0px" y="0px"
	 width="240px" height="96px" viewBox="0 0 240 96" enable-background="new 0 0 240 96" xml:space="preserve">
<circle fill-rule="evenodd" clip-rule="evenodd" fill="#29343E" cx="43.23" cy="46.491" r="4.315"/>
<circle fill="none" stroke="#29343E" stroke-width="0.216" stroke-miterlimit="22.9256" cx="43.23" cy="46.491" r="4.315"/>
<path fill="#53AAE0" d="M214.108,52.84c-1.747,0-3.272-1.049-3.272-3.213c0-2.292,1.448-3.485,3.945-3.485h4.414v5.027
	C217.602,52.218,216.025,52.84,214.108,52.84 M205.544,49.951c0,4.729,3.145,6.979,7.465,6.979c2.795,0,5.343-1.253,7.09-2.522
	c0.844,1.594,2.368,2.522,4.465,2.522c1.423,0,2.693-0.324,3.366-0.622l-0.094-4.286c-0.4,0.094-1.006,0.196-1.603,0.196
	c-1.022,0-1.593-0.725-1.593-2.02v-9.382c0-6.579-2.548-9.646-9.51-9.646c-3.417,0-6.791,0.895-8.309,1.397l0.674,4.576
	c1.5-0.443,4.243-1.133,6.885-1.133c3.817,0,4.814,1.73,4.814,4.389v2.215h-4.917C209.592,42.614,205.544,44.966,205.544,49.951z
	 M187.218,41.14c0-3.571,1.568-5.428,4.712-5.428c3.161,0,4.687,1.935,4.687,5.53v0.963h-9.398V41.14z M181.704,46.721
	c0,6.629,4.687,10.208,11.069,10.208c4.337,0,7.507-0.869,8.751-1.244l-0.477-4.508c-1.244,0.307-3.988,0.997-7.746,0.997
	c-3.988,0-6.084-1.917-6.084-5.377v-1.116h14.732c0-1.193,0.052-2.659,0.052-4.218c0-6.604-4.389-10.302-10.072-10.302
	c-5.785,0-10.226,3.673-10.226,10.276V46.721z M155.556,31.622V56.47h5.615v-17.86c2.07-1.475,4.414-2.292,6.161-2.292
	c2.42,0,3.417,1.27,3.417,3.562V56.47h5.615V38.183c0-4.584-2.573-7.021-6.962-7.021c-3.094,0-6.161,1.44-8.751,3.306l-0.35-2.846
	H155.556z M135.133,41.14c0-3.571,1.567-5.428,4.712-5.428c3.161,0,4.687,1.935,4.687,5.53v0.963h-9.398V41.14z M129.619,46.721
	c0,6.629,4.687,10.208,11.069,10.208c4.337,0,7.507-0.869,8.751-1.244l-0.478-4.508c-1.244,0.307-3.987,0.997-7.745,0.997
	c-3.988,0-6.084-1.917-6.084-5.377v-1.116h14.732c0-1.193,0.052-2.659,0.052-4.218c0-6.604-4.389-10.302-10.072-10.302
	c-5.786,0-10.226,3.673-10.226,10.276V46.721z M111.48,36.019h3.596c0,4.934-0.051,9.996,0.128,14.674
	c0.196,4.362,3.068,6.237,7.132,6.237c2.02,0,3.911-0.324,4.892-0.605l-0.375-4.456c-0.555,0.103-1.994,0.35-3.196,0.35
	c-1.746,0-2.99-0.597-2.99-3.119v-13.08h5.684v-4.397h-5.786c0-2.317-0.025-4.618-0.025-6.936h-4.985l-0.35,6.936h-3.724V36.019z
	 M96.442,27.174l4.789,16.718h-9.535L96.442,27.174z M110.817,56.47l-10.208-33.795h-8.317L82.084,56.47h6.144l2.25-7.874h11.947
	l2.25,7.874H110.817z"/>
<path fill="#29343E" d="M223.329,68.606h-1.147v11.146h6.037v-1.029h-4.89V68.606z M216.139,69.615l2.032,6.225h-4.047
	L216.139,69.615z M220.649,79.752l-3.695-11.146h-1.613l-3.695,11.146h1.211l0.953-2.918h4.676l0.953,2.918H220.649z
	 M207.598,79.752h1.146v-10.12h3.333v-1.023h-7.821v1.023h3.342V79.752z M196.279,68.606h-1.229v11.146h1.146V70.59l5.5,9.162h1.229
	V68.606h-1.146v9.169L196.279,68.606z M187.091,79.749h6.365v-1.023h-5.218V74.64h4.872v-1.022h-4.872v-3.985h5.038v-1.023h-6.186
	V79.749z M183.484,79.752h1.113V68.606h-1.366l-3.712,8.181l-3.707-8.181h-1.366v11.146h1.113v-9.204l3.555,7.787h0.807l3.563-7.787
	V79.752z M170.916,68.606v7.837c0,1.495-1.096,2.448-2.67,2.448c-1.579,0-2.676-0.961-2.676-2.448v-7.837h-1.146v7.852
	c0,2.122,1.616,3.445,3.822,3.445c2.209,0,3.816-1.323,3.816-3.445v-7.852H170.916z M162.768,78.423
	c-0.52,0.19-1.441,0.418-2.447,0.418c-1.639,0-2.821-0.983-2.821-2.619v-3.974c0-1.697,1.169-2.731,2.714-2.731
	c0.989,0,1.886,0.295,2.308,0.458l0.239-1c-0.431-0.209-1.408-0.521-2.555-0.521c-2.04,0-3.854,1.332-3.854,3.704v4.147
	c0,2.215,1.83,3.598,3.839,3.598c1.068,0,2.049-0.2,2.766-0.521L162.768,78.423z M147.818,72.133c0-1.658,1.082-2.667,2.833-2.667
	c1.742,0,2.833,1.009,2.833,2.667v4.092c0,1.658-1.091,2.667-2.833,2.667c-1.751,0-2.833-1.009-2.833-2.667V72.133z M146.672,72.043
	v4.271c0,2.333,1.808,3.589,3.979,3.589c2.164,0,3.963-1.256,3.963-3.589v-4.271c0-2.333-1.799-3.589-3.963-3.589
	C148.479,68.454,146.672,69.71,146.672,72.043z M143.79,72.187v3.985c0,1.638-1.087,2.602-2.905,2.602h-2.187v-9.189h2.187
	C142.703,69.584,143.79,70.669,143.79,72.187z M137.552,79.752h3.426c2.144,0,3.942-1.149,3.942-3.491v-4.164
	c0-2.128-1.799-3.49-3.942-3.49h-3.426V79.752z M127.887,69.584c1.431,0,2.42,0.772,2.42,2.22v0.486c0,1.456-0.989,2.237-2.42,2.237
	h-2.335v-4.943H127.887z M124.405,68.606v11.146h1.146V75.5h2.296l2.263,4.252h1.275l-2.375-4.393
	c1.378-0.329,2.426-1.357,2.426-2.979v-0.666c0-2.023-1.633-3.107-3.465-3.107H124.405z M115.467,72.133
	c0-1.658,1.082-2.667,2.833-2.667c1.742,0,2.833,1.009,2.833,2.667v4.092c0,1.658-1.091,2.667-2.833,2.667
	c-1.75,0-2.833-1.009-2.833-2.667V72.133z M114.321,72.043v4.271c0,2.333,1.807,3.589,3.979,3.589c2.164,0,3.963-1.256,3.963-3.589
	v-4.271c0-2.333-1.799-3.589-3.963-3.589C116.128,68.454,114.321,69.71,114.321,72.043z M109.163,79.752h1.147v-10.12h3.333v-1.023
	h-7.821v1.023h3.341V79.752z M105.196,76.922c0-1.636-0.725-2.546-2.411-3.063l-1.54-0.467c-1.16-0.354-1.529-0.913-1.529-2.012
	c0-1.231,0.905-1.863,2.31-1.863c1.11,0,1.976,0.228,2.535,0.427l0.18-1.028c-0.576-0.188-1.374-0.461-2.796-0.461
	c-2.015,0-3.358,1.242-3.358,2.917c0,1.411,0.548,2.529,1.95,2.957l1.54,0.466c1.439,0.436,1.973,0.97,1.973,2.145
	c0,1.476-1.021,1.902-2.617,1.902c-1.174,0-2.209-0.304-2.757-0.5l-0.205,1.028c0.607,0.236,1.638,0.534,3.077,0.534
	C103.878,79.903,105.196,78.883,105.196,76.922z M91.217,79.749h6.365v-1.023h-5.219V74.64h4.873v-1.022h-4.873v-3.985h5.039v-1.023
	h-6.186V79.749z M89.209,74.49h-1.096v4.081c-0.534,0.163-1.194,0.27-1.908,0.27c-1.813,0-2.965-0.928-2.965-2.675v-3.867
	c0-1.748,1.194-2.782,3.128-2.782c0.891,0,1.877,0.236,2.512,0.475l0.262-0.961c-0.706-0.312-1.695-0.576-2.864-0.576
	c-2.355,0-4.185,1.332-4.185,3.755v4.038c0,2.333,1.796,3.656,3.971,3.656c1.186,0,2.355-0.256,3.145-0.635V74.49z"/>
<path fill-rule="evenodd" clip-rule="evenodd" fill="#5C6F82" d="M28.428,56.137l-0.373,0.282l0.162-0.575
	c1.622-12.261,0.758-24.307,9.193-30.782c7.506-5.763,21.521-2.317,25.961,8.006c-7.729,1.945-10.518,1.359-17.331,5.347
	c-0.648,0.378-1.294,0.689-1.926,0.956c-4.375-0.267-9.792,3.895-6.583,11.027L28.428,56.137z"/>
<path fill-rule="evenodd" clip-rule="evenodd" fill="#F0AD4E" d="M64.4,52.653c-1.46,1.095-1.132,0.178-2.492,1.049
	c-0.109,1.253-0.055,1.978-0.334,3.071l-1.106,6.879c-5.075,1.099-8.602-2.771-11.379-4.676c0.447,1.812,1.361,2.352,2.619,3.61
	c-1.53,3.465-3.531,5.79-0.962,10.476c1.665,3.036,4.251,4.3,6.627,6.557c-8.049,0.21-12.731-7.13-18.517-7.326
	c-1.473-0.624-0.453,0.081-1.683-0.966c-0.753-0.35-0.886,0.153-0.797-0.513c1.7-5.011,7.275-6.969,7.473-17.532
	c3.299-0.235,6.617-2.63,6.389-7.546c2.631-0.897,5.248-1.538,8.199-1.457l2.79-0.112C61.877,47.507,62.65,49.412,64.4,52.653z"/>
<path fill="none" stroke="#F0AD4E" stroke-width="0.216" stroke-miterlimit="22.9256" d="M64.4,52.653
	c-1.46,1.095-1.132,0.178-2.492,1.049c-0.109,1.253-0.055,1.978-0.334,3.071l-1.106,6.879c-5.075,1.099-8.602-2.771-11.379-4.676
	c0.447,1.812,1.361,2.352,2.619,3.61c-1.53,3.465-3.531,5.79-0.962,10.476c1.665,3.036,4.251,4.3,6.627,6.557
	c-8.049,0.21-12.731-7.13-18.517-7.326c-1.473-0.624-0.453,0.081-1.683-0.966c-0.753-0.35-0.886,0.153-0.797-0.513
	c1.7-5.011,7.275-6.969,7.473-17.532c3.299-0.235,6.617-2.63,6.389-7.546c2.631-0.897,5.248-1.538,8.199-1.457l2.79-0.112
	C61.877,47.507,62.65,49.412,64.4,52.653z"/>
<path fill-rule="evenodd" clip-rule="evenodd" fill="#53AAE0" d="M28.553,37.541c-0.178,4.246-0.715,14.463-1.878,17.974
	c-1.12,3.381-1.936,3.866-4.356,5.618c-3.726,3.792-3.316,5.645-3.68,8.156c-6.989-9.445-9.208-23.292-5.833-35.477
	C15.732,33.737,25.195,36.7,28.553,37.541"/>
<path fill-rule="evenodd" clip-rule="evenodd" fill="#899DAC" d="M24.732,75.443c0.169,1.479,0.371,2.278-0.711,0.368
	c-1.527-2.291-4.961-2.4-4.173-6.747c1.085-5.986,7.497-9.247,12.677-13.419c1.563-1.259,4.311-3.915,5.984-4.056
	c0.119,0.207,1.463,0.963,1.526,1.03c0.16,0.168-0.149,0.51-0.293,1.188C38.39,60.162,24.992,64.774,24.732,75.443"/>
<path fill-rule="evenodd" clip-rule="evenodd" fill="#29343E" d="M45.787,39.94c6.8-3.622,11.162-5.294,21.483-5.181l-1.787,7.466
	c-8.27,0.541-5.306-0.189-15.61,1.942C49.084,42.344,47.663,41.014,45.787,39.94z"/>
<path fill="none" stroke="#29343E" stroke-width="0.216" stroke-miterlimit="22.9256" d="M45.787,39.94
	c6.8-3.622,11.162-5.294,21.483-5.181l-1.787,7.466c-8.27,0.541-5.306-0.189-15.61,1.942C49.084,42.344,47.663,41.014,45.787,39.94z
	"/>
<path fill-rule="evenodd" clip-rule="evenodd" fill="#899DAC" d="M42.207,56.031c-0.252,8.932-11.981,12.045-7.577,23.127
	c-2.529-0.517-6.052-1.924-6.521-4.748C26.34,63.77,40.07,61.563,40.632,53.001c1.119,0.263-0.352-0.079,1.747,0.299L42.207,56.031z
	"/>
<path fill-rule="evenodd" clip-rule="evenodd" fill="#53AAE0" d="M29.105,36.066L13.52,31.841c0.573-1.588,1.669-3.833,2.702-5.632
	l3.798-1.121l10.584,5.847L29.105,36.066z"/>
<path fill-rule="evenodd" clip-rule="evenodd" fill="#53AAE0" d="M25.807,15.316c1.396-1.049,3.864-2.629,6.225-3.839l3.953,1.319
	l3.058,9.268l-4.318,2.62L25.807,15.316z"/>
<path fill-rule="evenodd" clip-rule="evenodd" fill="#53AAE0" d="M45.792,20.163c-0.446,0.512,0.911,0.263-2.455,0.829
	c-1.091,0.184-1.817,0.322-2.917,0.421c-0.886-3.351-2.839-8.813-3.752-11.857c2.168-0.743,4.44-1.193,6.757-1.51l2.766,2.023
	L45.792,20.163z"/>
<path fill-rule="evenodd" clip-rule="evenodd" fill="#53AAE0" d="M66.036,14.965l-7.648,9.376l-4.124-2.046l4.407-13.237
	c2.216,0.617,4.584,1.726,6.608,2.718L66.036,14.965z"/>
<path fill-rule="evenodd" clip-rule="evenodd" fill="#53AAE0" d="M47.571,20.458l0.591-12.803c1.546,0.015,4.113,0.122,6.42,0.472
	l1.787,2.498l-3.6,10.973C51.256,21.13,49.19,20.727,47.571,20.458"/>
<path fill-rule="evenodd" clip-rule="evenodd" fill="#53AAE0" d="M18.729,22.38c0.845-1.121,2.4-2.795,3.74-4.13l3.587-0.305
	c2.449,2.21,5.447,5.267,7.589,7.746c-0.29,1.474-1.186,2.452-2.321,3.713L18.729,22.38z"/>
<path fill-rule="evenodd" clip-rule="evenodd" fill="#FDFDFD" d="M64.081,13.576c-0.077,0.389,0.229,0.495,0.622,0.702
	c0.367,0.194,0.645,0.432,1.013,0.625l-0.752-3.027L64.081,13.576z"/>
<line fill="none" stroke="#FFFFFF" stroke-width="0.4799" stroke-linecap="round" stroke-linejoin="round" stroke-miterlimit="22.9256" x1="59.099" y1="13.1" x2="63.662" y2="15.508"/>
<line fill="none" stroke="#FFFFFF" stroke-width="0.4799" stroke-linecap="round" stroke-linejoin="round" stroke-miterlimit="22.9256" x1="58.541" y1="14.523" x2="62.601" y2="16.666"/>
<line fill="none" stroke="#FFFFFF" stroke-width="0.4799" stroke-linecap="round" stroke-linejoin="round" stroke-miterlimit="22.9256" x1="57.868" y1="15.916" x2="61.654" y2="17.914"/>
<line fill="none" stroke="#FFFFFF" stroke-width="0.4799" stroke-linecap="round" stroke-linejoin="round" stroke-miterlimit="22.9256" x1="57.422" y1="17.454" x2="60.72" y2="19.195"/>
<line fill="none" stroke="#FFFFFF" stroke-width="0.4799" stroke-linecap="round" stroke-linejoin="round" stroke-miterlimit="22.9256" x1="57.123" y1="19.027" x2="59.519" y2="20.292"/>
<path fill-rule="evenodd" clip-rule="evenodd" fill="#FDFDFD" d="M54.018,10.068c0.063,0.391,0.387,0.384,0.828,0.44
	c0.412,0.054,0.755,0.181,1.167,0.233l-1.761-2.574L54.018,10.068z"/>
<line fill="none" stroke="#FFFFFF" stroke-width="0.4799" stroke-linecap="round" stroke-linejoin="round" stroke-miterlimit="22.9256" x1="49.098" y1="11.39" x2="54.215" y2="12.056"/>
<line fill="none" stroke="#FFFFFF" stroke-width="0.4799" stroke-linecap="round" stroke-linejoin="round" stroke-miterlimit="22.9256" x1="49.071" y1="12.918" x2="53.624" y2="13.511"/>
<line fill="none" stroke="#FFFFFF" stroke-width="0.4799" stroke-linecap="round" stroke-linejoin="round" stroke-miterlimit="22.9256" x1="48.926" y1="14.458" x2="53.172" y2="15.011"/>
<line fill="none" stroke="#FFFFFF" stroke-width="0.4799" stroke-linecap="round" stroke-linejoin="round" stroke-miterlimit="22.9256" x1="49.044" y1="16.056" x2="52.743" y2="16.537"/>
<line fill="none" stroke="#FFFFFF" stroke-width="0.4799" stroke-linecap="round" stroke-linejoin="round" stroke-miterlimit="22.9256" x1="49.313" y1="17.634" x2="52" y2="17.984"/>
<path fill-rule="evenodd" clip-rule="evenodd" fill="#FDFDFD" d="M43.654,10.181c0.181,0.353,0.487,0.245,0.923,0.164
	c0.408-0.077,0.774-0.062,1.182-0.139L43.29,8.3L43.654,10.181z"/>
<line fill="none" stroke="#FFFFFF" stroke-width="0.4799" stroke-linecap="round" stroke-linejoin="round" stroke-miterlimit="22.9256" x1="39.382" y1="12.957" x2="44.455" y2="12.011"/>
<line fill="none" stroke="#FFFFFF" stroke-width="0.4799" stroke-linecap="round" stroke-linejoin="round" stroke-miterlimit="22.9256" x1="39.829" y1="14.418" x2="44.341" y2="13.577"/>
<line fill="none" stroke="#FFFFFF" stroke-width="0.4799" stroke-linecap="round" stroke-linejoin="round" stroke-miterlimit="22.9256" x1="40.166" y1="15.928" x2="44.375" y2="15.143"/>
<line fill="none" stroke="#FFFFFF" stroke-width="0.4799" stroke-linecap="round" stroke-linejoin="round" stroke-miterlimit="22.9256" x1="40.771" y1="17.411" x2="44.438" y2="16.728"/>
<line fill="none" stroke="#FFFFFF" stroke-width="0.4799" stroke-linecap="round" stroke-linejoin="round" stroke-miterlimit="22.9256" x1="41.514" y1="18.83" x2="44.177" y2="18.333"/>
<path fill-rule="evenodd" clip-rule="evenodd" fill="#FDFDFD" d="M33.544,13.631c0.294,0.266,0.542,0.057,0.921-0.175
	c0.354-0.216,0.701-0.333,1.055-0.549l-2.985-0.903L33.544,13.631z"/>
<line fill="none" stroke="#FFFFFF" stroke-width="0.4799" stroke-linecap="round" stroke-linejoin="round" stroke-miterlimit="22.9256" x1="30.538" y1="17.745" x2="34.943" y2="15.058"/>
<line fill="none" stroke="#FFFFFF" stroke-width="0.4799" stroke-linecap="round" stroke-linejoin="round" stroke-miterlimit="22.9256" x1="31.475" y1="18.952" x2="35.394" y2="16.562"/>
<line fill="none" stroke="#FFFFFF" stroke-width="0.4799" stroke-linecap="round" stroke-linejoin="round" stroke-miterlimit="22.9256" x1="32.327" y1="20.243" x2="35.981" y2="18.014"/>
<line fill="none" stroke="#FFFFFF" stroke-width="0.4799" stroke-linecap="round" stroke-linejoin="round" stroke-miterlimit="22.9256" x1="33.42" y1="21.415" x2="36.604" y2="19.472"/>
<line fill="none" stroke="#FFFFFF" stroke-width="0.4799" stroke-linecap="round" stroke-linejoin="round" stroke-miterlimit="22.9256" x1="34.618" y1="22.477" x2="36.931" y2="21.065"/>
<path fill-rule="evenodd" clip-rule="evenodd" fill="#FDFDFD" d="M24.28,19.649c0.375,0.13,0.521-0.16,0.78-0.521
	c0.242-0.337,0.516-0.58,0.758-0.918l-3.101,0.333L24.28,19.649z"/>
<line fill="none" stroke="#FFFFFF" stroke-width="0.4799" stroke-linecap="round" stroke-linejoin="round" stroke-miterlimit="22.9256" x1="23.89" y1="24.051" x2="26.648" y2="20.206"/>
<line fill="none" stroke="#FFFFFF" stroke-width="0.4799" stroke-linecap="round" stroke-linejoin="round" stroke-miterlimit="22.9256" x1="25.113" y1="24.736" x2="27.567" y2="21.315"/>
<line fill="none" stroke="#FFFFFF" stroke-width="0.4799" stroke-linecap="round" stroke-linejoin="round" stroke-miterlimit="22.9256" x1="26.294" y1="25.521" x2="28.583" y2="22.331"/>
<line fill="none" stroke="#FFFFFF" stroke-width="0.4799" stroke-linecap="round" stroke-linejoin="round" stroke-miterlimit="22.9256" x1="27.636" y1="26.12" x2="29.63" y2="23.34"/>
<line fill="none" stroke="#FFFFFF" stroke-width="0.4799" stroke-linecap="round" stroke-linejoin="round" stroke-miterlimit="22.9256" x1="29.028" y1="26.587" x2="30.477" y2="24.568"/>
<path fill-rule="evenodd" clip-rule="evenodd" fill="#FDFDFD" d="M18.407,27.286c0.395,0.036,0.468-0.279,0.633-0.691
	c0.154-0.386,0.363-0.687,0.517-1.072l-2.933,1.062L18.407,27.286z"/>
<line fill="none" stroke="#FFFFFF" stroke-width="0.4799" stroke-linecap="round" stroke-linejoin="round" stroke-miterlimit="22.9256" x1="19.211" y1="31.745" x2="20.974" y2="27.353"/>
<line fill="none" stroke="#FFFFFF" stroke-width="0.4799" stroke-linecap="round" stroke-linejoin="round" stroke-miterlimit="22.9256" x1="20.562" y1="32.118" x2="22.131" y2="28.21"/>
<line fill="none" stroke="#FFFFFF" stroke-width="0.4799" stroke-linecap="round" stroke-linejoin="round" stroke-miterlimit="22.9256" x1="21.896" y1="32.6" x2="23.359" y2="28.956"/>
<line fill="none" stroke="#FFFFFF" stroke-width="0.4799" stroke-linecap="round" stroke-linejoin="round" stroke-miterlimit="22.9256" x1="23.343" y1="32.86" x2="24.617" y2="29.686"/>
<line fill="none" stroke="#FFFFFF" stroke-width="0.4799" stroke-linecap="round" stroke-linejoin="round" stroke-miterlimit="22.9256" x1="24.806" y1="32.983" x2="25.731" y2="30.677"/>
</svg>
